<svg xmlns="http://www.w3.org/2000/svg" viewBox="0 0 145.94 80"><defs><style>.cls-1{fill:#171e3f;}.cls-2{fill:#fff;}.cls-3{fill:#fdf5a6;}</style></defs><title>bookmegastore</title><g id="Layer_2" data-name="Layer 2"><g id="Layer_1-2" data-name="Layer 1"><rect class="cls-1" width="145.94" height="80"/><path class="cls-2" d="M25.28,15.55c3.46,0,5.7.51,7.18,1.6a7.28,7.28,0,0,1,2.7,6,6.78,6.78,0,0,1-1.77,4.81,6.36,6.36,0,0,1-3,1.69,6.31,6.31,0,0,1,3.33,1.52,6.58,6.58,0,0,1,2,5.07,7.33,7.33,0,0,1-2.91,6.16c-1.48,1-3.21,1.35-6.29,1.35H16.2V15.55ZM22,27.5h2.32c3.42,0,5-1.22,5-3.84a3.46,3.46,0,0,0-1.69-3.17A8.85,8.85,0,0,0,24,19.94H22Zm0,11.95h2.83c2,0,2.91-.17,3.76-.76a3.39,3.39,0,0,0,1.39-3,3.44,3.44,0,0,0-1.61-3.21c-.89-.51-1.77-.68-3.88-.68H22Z"/><path class="cls-2" d="M66.3,19.73a14.37,14.37,0,0,1,3.59,10,14.55,14.55,0,0,1-29.09,0,14.7,14.7,0,0,1,25.5-10Zm-19.59,10c0,5.24,3.76,9.25,8.66,9.25A8.81,8.81,0,0,0,64,29.82c0-5.45-3.63-9.46-8.61-9.46S46.71,24.33,46.71,29.69Z"/><path class="cls-2" d="M100.31,19.73a14.37,14.37,0,0,1,3.59,10,14.55,14.55,0,0,1-29.09,0,14.7,14.7,0,0,1,25.5-10Zm-19.59,10c0,5.24,3.76,9.25,8.66,9.25A8.81,8.81,0,0,0,98,29.82c0-5.45-3.63-9.46-8.61-9.46S80.72,24.33,80.72,29.69Z"/><path class="cls-2" d="M116.25,43.71h-5.78V15.55h5.78V27.79l8-12.24h6.71L121.82,29.1l9.12,14.61h-6.8l-7.9-12.54Z"/><path class="cls-3" d="M16.24,64.82H15V55h1.23l3.65,7.39L23.58,55h1.21v9.86H23.54V57.61l-3.67,7.32-3.64-7.33Z"/><path class="cls-3" d="M33.3,59.32h3.89v1.06H33.3v3.37h3.89v1.06H32.06V55h5.13V56H33.3Z"/><path class="cls-3" d="M53,59.48c0,.21,0,.47,0,.56a4.75,4.75,0,0,1-4.73,5,5.11,5.11,0,0,1,0-10.22A4.61,4.61,0,0,1,52,56.57l-.93.75a4.16,4.16,0,0,0-.83-.78,3.34,3.34,0,0,0-2-.62,4,4,0,0,0,0,7.94,3.58,3.58,0,0,0,2.84-1.45,3.48,3.48,0,0,0,.63-1.86H48.32V59.48Z"/><path class="cls-3" d="M60.48,62.55l-.9,2.28H58.29L62,55h1.48l3.62,9.86H65.71l-.81-2.28Zm2.23-6-1.86,5h3.67Z"/><path class="cls-3" d="M73.86,62.18a1.6,1.6,0,0,0,1.75,1.72,1.71,1.71,0,0,0,1.89-1.67c0-.86-.44-1.26-2-1.77a5,5,0,0,1-2-1,2.45,2.45,0,0,1-.77-1.86,2.94,2.94,0,0,1,5.87,0H77.36a1.9,1.9,0,0,0-.24-1,1.72,1.72,0,0,0-1.46-.69A1.58,1.58,0,0,0,74,57.5a1.37,1.37,0,0,0,.56,1.14,5.79,5.79,0,0,0,1.58.7,4.44,4.44,0,0,1,2,1.06,2.54,2.54,0,0,1,.67,1.74A2.84,2.84,0,0,1,75.65,65,2.78,2.78,0,0,1,73,63.67a2.43,2.43,0,0,1-.34-1.29v-.21Z"/><path class="cls-3" d="M88.22,64.82H87V56H84.46V55h6.25V56h-2.5Z"/><path class="cls-3" d="M104.51,56.48a5,5,0,0,1,1.15,3.5A4.93,4.93,0,0,1,104,63.82,4.83,4.83,0,0,1,100.84,65,4.93,4.93,0,0,1,97,63.15a5.08,5.08,0,0,1-1-3.21,4.91,4.91,0,0,1,4.88-5.16A4.85,4.85,0,0,1,104.51,56.48ZM97.27,59.9a3.66,3.66,0,0,0,3.55,4,3.53,3.53,0,0,0,2.63-1.18,4.22,4.22,0,0,0,.95-2.71,3.9,3.9,0,0,0-1.12-3,3.56,3.56,0,0,0-2.42-1A3.68,3.68,0,0,0,97.27,59.9Z"/><path class="cls-3" d="M113.68,64.82h-1.24V55h2.69c2.1,0,3.37,1.08,3.37,2.87a2.68,2.68,0,0,1-1.42,2.48,4.07,4.07,0,0,1-1.82.41l3.83,4.1h-1.58l-3.83-4.14Zm1.24-5c1.49,0,2.31-.68,2.31-1.92s-.74-1.89-2.1-1.89h-1.45v3.81Z"/><path class="cls-3" d="M126.64,59.32h3.89v1.06h-3.89v3.37h3.89v1.06H125.4V55h5.13V56h-3.89Z"/></g></g></svg>